<?xml version="1.0" standalone="no"?>
<!DOCTYPE svg PUBLIC "-//W3C//DTD SVG 20010904//EN"
 "http://www.w3.org/TR/2001/REC-SVG-20010904/DTD/svg10.dtd">
<svg version="1.0" xmlns="http://www.w3.org/2000/svg"
 width="500.000000pt" height="500.000000pt" viewBox="0 0 500.000000 500.000000"
 preserveAspectRatio="xMidYMid meet">
<metadata>
Created by potrace 1.14, written by Peter Selinger 2001-2017
</metadata>
<g transform="translate(0.000000,500.000000) scale(0.100000,-0.100000)"
fill="#000000" stroke="none">
<path d="M2065 4659 c-101 -15 -226 -55 -334 -107 l-104 -50 39 -6 c31 -5 55
0 120 28 115 48 212 73 339 87 126 13 220 7 271 -17 66 -32 74 22 8 56 -35 17
-246 23 -339 9z"/>
<path d="M2546 4631 c-16 -3 -31 -11 -33 -18 -10 -30 141 -23 217 10 34 15 33
15 -60 15 -52 0 -108 -3 -124 -7z"/>
<path d="M2971 4583 c-24 -16 -23 -16 71 -48 112 -38 119 -42 228 -113 285
-188 424 -326 615 -612 99 -149 269 -465 259 -481 -4 -7 -3 -9 2 -6 14 8 33
-48 23 -64 -7 -11 -9 -11 -9 2 0 9 -6 19 -12 21 -21 8 -38 -2 -38 -22 0 -10
-8 -20 -19 -23 -14 -3 -23 5 -37 32 -9 20 -17 42 -15 48 1 7 -4 10 -13 7 -12
-5 -8 -18 20 -68 19 -35 34 -67 34 -72 0 -4 -20 27 -45 70 -24 43 -42 84 -38
90 3 6 3 8 -2 4 -10 -10 -57 102 -50 120 3 7 1 11 -4 8 -5 -3 -23 28 -41 69
-39 89 -72 127 -40 45 35 -89 15 -66 -24 27 -37 90 -70 143 -81 131 -3 -3 10
-38 29 -77 20 -39 48 -105 62 -148 26 -78 73 -297 74 -342 0 -33 -13 -18 -15
16 -1 16 -8 47 -15 71 l-13 42 -99 0 -98 0 0 -35 0 -35 -80 0 -80 0 0 35 c0
28 -4 35 -20 35 -11 0 -20 5 -20 11 0 5 -5 7 -11 3 -6 -3 -8 -17 -4 -33 27
-106 27 -150 -1 -56 -14 50 -26 110 -27 135 0 34 -2 40 -9 25 -7 -17 -8 -15
-5 7 2 15 1 25 -4 23 -4 -3 -10 9 -14 25 -26 116 -131 373 -216 522 -68 122
-153 246 -226 333 -57 68 -186 175 -210 175 -24 0 -13 -18 19 -31 46 -19 184
-159 254 -259 176 -248 303 -520 368 -782 39 -159 51 -225 37 -193 -5 11 -13
38 -17 60 l-9 40 -182 3 -183 2 0 -30 c0 -19 -5 -30 -14 -30 -8 0 -16 -6 -19
-12 -2 -7 -7 4 -11 25 -4 20 -4 42 -1 47 3 6 2 10 -3 10 -6 0 -16 24 -22 53
-7 28 -18 70 -25 92 -7 22 -34 108 -60 190 -25 83 -64 204 -86 270 -35 109
-39 130 -39 225 0 151 -35 263 -84 276 -43 10 -71 1 -74 -26 -6 -39 16 -101
103 -285 32 -66 90 -250 236 -738 17 -55 27 -108 24 -120 -5 -16 -4 -18 3 -8
7 9 9 5 9 -15 0 -16 -1 -24 -3 -19 -2 6 -30 9 -61 8 -32 -2 -52 0 -45 3 7 4
12 26 12 60 l0 54 -80 0 c-64 0 -80 -3 -80 -15 0 -12 -16 -15 -80 -15 l-80 0
0 -50 0 -50 -40 0 -40 0 0 43 c0 35 -4 44 -24 53 -28 13 -41 -2 -25 -27 5 -8
8 -39 8 -69 l-1 -55 -15 55 c-61 232 -74 344 -80 680 -3 162 -9 286 -13 275
-27 -75 -16 -525 19 -736 18 -114 18 -205 -1 -193 -6 4 -8 -4 -4 -22 3 -16 2
-35 -3 -43 -6 -9 -11 13 -15 65 -4 43 -11 126 -16 184 -6 58 -10 111 -10 118
0 6 -5 12 -11 12 -9 0 -10 -28 -5 -102 14 -217 15 -264 7 -233 -5 17 -9 22
-10 12 -1 -18 -23 -47 -35 -47 -3 0 -6 11 -6 25 0 14 -4 25 -10 25 -5 0 -10 6
-10 14 0 11 -49 30 -57 22 -1 -1 7 -21 18 -44 19 -37 19 -43 6 -57 -13 -13
-16 -7 -26 49 -39 226 -34 342 30 656 54 269 79 350 120 398 19 22 42 54 52
71 l18 31 -34 0 c-19 0 -40 -6 -46 -13 -47 -57 -161 -545 -177 -759 -10 -134
-96 -445 -116 -417 -7 10 -8 8 -3 -7 11 -43 -1 -51 -93 -58 -48 -3 -98 -8
-112 -11 -14 -3 -19 -3 -12 1 20 10 15 44 -8 44 -16 0 -20 7 -20 31 l0 31 -70
-4 c-55 -2 -71 0 -76 12 -10 23 -25 -38 -19 -75 3 -16 1 -68 -4 -115 -9 -78
-9 -73 -7 65 2 102 8 163 18 190 14 36 16 38 27 20 10 -16 11 -16 7 -2 -4 12
0 17 12 17 9 0 23 9 30 20 7 11 19 20 27 20 8 0 15 5 15 10 0 17 -15 11 -40
-15 -30 -32 -64 -32 -95 0 -45 44 -24 124 47 175 24 17 42 34 40 38 -4 9 3 52
40 216 20 92 27 141 20 145 -18 11 115 197 216 302 52 55 88 99 80 99 -21 0
-155 -142 -217 -231 -79 -111 -152 -236 -166 -283 -8 -22 -25 -72 -39 -111
-52 -141 -69 -245 -70 -432 -1 -94 -5 -175 -10 -180 -5 -5 -6 5 -3 22 l6 30
-117 0 c-128 0 -173 5 -185 20 -4 6 -5 -1 -2 -15 3 -14 -2 -43 -10 -65 l-16
-40 6 65 c10 114 35 251 70 385 19 72 42 159 51 195 9 36 24 82 35 102 11 21
15 39 10 43 -15 8 -54 -49 -109 -161 -100 -199 -172 -454 -198 -699 l-13 -130
3 135 c2 74 1 119 -1 100 -2 -19 -9 -39 -14 -45 -5 -5 -9 -17 -9 -27 0 -10 -7
-18 -15 -18 -8 0 -15 9 -15 19 0 11 -9 23 -20 26 -11 3 -20 13 -20 21 0 8 -4
14 -10 14 -5 0 -10 -6 -10 -14 0 -11 -17 -15 -65 -18 -53 -2 -65 0 -65 12 0
13 -2 13 -9 1 -5 -8 -16 -11 -25 -8 -9 4 -16 1 -17 -6 -1 -7 -5 -1 -9 13 -7
21 -8 19 -8 -15 0 -22 -7 -56 -16 -75 -17 -35 -17 -35 -12 -5 3 17 10 61 18
99 10 57 14 65 20 45 5 -16 6 -12 2 13 -11 79 83 417 164 590 55 119 97 182
221 332 101 123 197 216 288 281 24 17 43 33 43 36 0 4 -12 9 -26 12 -22 4
-41 -8 -114 -73 -176 -159 -320 -326 -410 -480 -44 -75 -139 -312 -169 -420
-18 -65 -88 -411 -106 -525 -16 -101 -70 -278 -107 -353 -22 -46 -65 -116 -94
-155 -59 -81 -56 -88 33 -62 87 25 168 72 233 135 58 55 58 56 64 31 3 -14 9
-111 12 -216 5 -152 3 -213 -10 -305 -27 -184 -89 -403 -119 -422 -9 -5 -9
-10 0 -19 35 -35 313 98 430 204 13 11 25 18 29 15 13 -14 35 -206 41 -355 3
-90 7 -163 9 -163 2 0 20 10 41 22 72 40 227 206 284 302 l21 36 32 -25 c27
-20 36 -38 50 -97 10 -40 20 -103 23 -140 5 -53 9 -68 22 -68 10 0 29 -27 50
-71 l34 -70 -18 -38 c-16 -37 -16 -40 3 -77 l20 -39 -34 -35 c-31 -32 -37 -49
-69 -195 -19 -88 -35 -168 -35 -178 0 -11 -29 -65 -64 -121 -70 -109 -85 -161
-101 -339 l-7 -77 473 2 474 3 -3 27 c-2 17 4 31 17 40 29 20 81 168 81 230 0
31 -6 42 -39 69 -26 20 -38 37 -34 48 19 60 59 141 71 143 8 2 33 51 56 109
l41 105 30 -12 c17 -7 69 -20 117 -29 88 -17 88 -17 98 -54 15 -56 47 -268 70
-461 28 -235 23 -220 66 -220 l37 0 -7 42 c-18 128 -47 328 -62 433 -9 66 -23
143 -30 170 -19 71 -18 84 12 91 14 4 46 22 70 40 24 19 47 34 50 34 3 0 17
-25 31 -56 24 -52 25 -60 14 -109 -8 -36 -9 -60 -1 -79 15 -40 13 -43 -25 -50
-39 -8 -39 -7 -24 -58 12 -44 17 -45 116 -23 37 9 78 18 91 20 15 4 22 13 22
30 0 13 4 26 10 30 11 7 44 -102 101 -337 l43 -178 108 0 c118 0 116 -1 98 60
-23 75 -149 608 -155 655 -4 28 -14 63 -22 78 -20 40 -80 104 -128 137 -33 23
-44 39 -59 87 -10 32 -25 72 -34 88 -11 22 -15 54 -13 117 3 93 -8 128 -39
128 -11 0 -20 3 -20 8 0 10 79 116 89 120 4 1 20 -15 36 -37 61 -90 159 -161
239 -176 38 -8 38 -7 32 21 -14 71 -18 125 -11 161 5 33 16 47 74 91 66 50
126 119 167 189 21 38 30 41 39 13 20 -62 192 -234 280 -281 44 -23 68 -21 47
4 -13 16 -44 115 -64 202 -9 40 -13 129 -12 270 1 173 4 227 22 305 33 154 45
323 38 535 -4 105 -9 208 -12 230 -9 63 7 34 78 -135 139 -331 217 -616 219
-801 l1 -94 14 50 c8 28 19 118 25 202 26 356 -52 717 -257 1183 -245 556
-602 952 -1033 1147 -106 47 -126 51 -160 26z m-1676 -924 c-47 -130 -123
-489 -126 -588 l-1 -36 -8 33 c-4 18 -5 43 -2 54 3 15 1 19 -9 16 -8 -3 -17
-18 -20 -34 -4 -18 -7 -22 -8 -9 -3 63 91 431 108 421 3 -2 7 6 7 17 2 24 65
180 71 174 2 -2 -4 -24 -12 -48z m2635 -254 c39 -105 71 -219 83 -295 9 -54
-9 -6 -23 63 -6 32 -14 56 -17 53 -4 -3 -6 -39 -6 -78 1 -40 -1 -59 -4 -43
-17 122 -47 281 -63 336 -20 65 -24 86 -16 78 2 -2 23 -53 46 -114z m-1774
-285 c53 -238 172 -537 229 -574 34 -23 39 -17 25 31 -13 44 -50 286 -45 292
2 1 18 -26 36 -60 73 -147 223 -320 330 -382 58 -34 156 -47 165 -22 4 9 -13
64 -39 125 -24 61 -43 110 -41 110 2 0 25 -24 51 -52 132 -145 205 -214 271
-259 72 -48 132 -65 132 -36 0 6 -23 82 -50 167 -27 85 -48 156 -46 158 2 1
21 -28 42 -65 56 -101 159 -258 227 -346 l60 -77 -18 -67 c-10 -37 -31 -92
-46 -122 -16 -31 -29 -57 -29 -58 0 0 21 9 48 22 26 13 49 19 50 13 6 -14 -43
-82 -95 -133 -101 -98 -281 -199 -456 -254 -110 -35 -125 -37 -141 -17 -6 8
-48 33 -93 56 l-83 43 -67 -45 c-111 -74 -133 -86 -156 -81 -13 3 -17 1 -11
-4 8 -5 -9 -27 -52 -67 -36 -32 -67 -56 -70 -53 -9 9 -24 79 -24 114 0 22 5
33 18 37 12 3 11 4 -4 3 -11 -1 -27 3 -35 9 -8 6 -52 23 -99 38 -84 28 -244
106 -302 149 -26 19 -54 64 -46 73 2 1 53 -4 113 -12 61 -7 139 -13 174 -14
l64 0 -59 39 c-108 70 -239 223 -338 394 -31 52 -27 57 22 27 18 -11 35 -20
38 -20 4 0 -18 28 -48 63 -61 70 -60 56 -11 189 29 79 64 117 147 158 48 24
72 30 125 30 62 -1 163 -18 205 -35 32 -14 14 17 -25 42 -19 12 -47 32 -62 44
-25 19 -40 22 -116 21 -60 -1 -106 -7 -144 -20 l-56 -20 9 23 c5 12 31 67 58
122 88 174 212 491 212 540 0 11 3 23 8 27 4 4 11 -27 15 -71 4 -43 19 -130
33 -193z m244 75 c0 -28 -26 45 -27 75 -1 31 0 30 13 -15 7 -27 14 -54 14 -60z
m1100 95 c0 -5 -2 -10 -4 -10 -3 0 -8 5 -11 10 -3 6 -1 10 4 10 6 0 11 -4 11
-10z m687 -52 c-3 -8 -6 -5 -6 6 -1 11 2 17 5 13 3 -3 4 -12 1 -19z m-389 -35
c-27 -2 -69 -2 -95 0 -27 2 -5 3 47 3 52 0 74 -1 48 -3z m-351 -50 c-3 -10 -5
-4 -5 12 0 17 2 24 5 18 2 -7 2 -21 0 -30z m793 -32 c-1 -13 -29 45 -29 59 0
8 6 0 14 -19 8 -18 15 -36 15 -40z m-1930 27 c0 -36 -4 -35 -14 5 -4 16 -2 27
4 27 5 0 10 -14 10 -32z m103 -4 c2 -17 7 -35 11 -42 4 -7 2 -12 -3 -12 -6 0
-11 3 -12 8 0 4 -3 25 -5 47 -3 21 -3 37 0 34 3 -3 7 -19 9 -35z m52 -39 c5
-43 -6 -25 -19 30 -5 21 -4 27 3 20 6 -6 13 -28 16 -50z m1651 43 c5 -7 3 -8
-6 -3 -9 6 -10 1 -5 -16 5 -19 4 -21 -4 -9 -13 19 -14 40 -2 40 6 0 13 -5 17
-12z m-1763 -17 c2 -10 1 -25 -4 -32 -6 -10 -9 -4 -9 19 0 36 5 42 13 13z
m-154 -41 l-1 -25 -8 25 c-4 14 -8 32 -9 40 -1 13 0 13 9 0 5 -8 9 -26 9 -40z
m1298 28 c-3 -8 -6 -5 -6 6 -1 11 2 17 5 13 3 -3 4 -12 1 -19z m-40 -20 c-3
-7 -5 -2 -5 12 0 14 2 19 5 13 2 -7 2 -19 0 -25z m-1703 13 c4 -5 -3 -7 -14
-4 -23 6 -26 13 -6 13 8 0 17 -4 20 -9z m2173 -58 c-2 -16 -4 -5 -4 22 0 28 2
40 4 28 2 -13 2 -35 0 -50z m-2379 -20 l-1 -78 -7 65 c-6 60 -4 90 6 90 2 0 3
-35 2 -77z m431 47 c-6 -16 -13 -30 -15 -30 -6 0 1 33 9 48 14 21 16 13 6 -18z
m-89 10 c-25 -4 -67 -9 -95 -13 l-50 -6 50 13 c28 8 70 14 95 14 l45 -1 -45
-7z m1617 -22 c-3 -7 -5 -2 -5 12 0 14 2 19 5 13 2 -7 2 -19 0 -25z m623 -3
c0 -5 -5 -3 -10 5 -5 8 -10 20 -10 25 0 6 5 3 10 -5 5 -8 10 -19 10 -25z
m-2460 6 c0 -5 -6 -11 -13 -14 -8 -3 -14 1 -14 9 0 8 6 14 14 14 7 0 13 -4 13
-9z m647 -23 c-3 -7 -5 -2 -5 12 0 14 2 19 5 13 2 -7 2 -19 0 -25z m142 -48
c0 -15 -28 48 -28 65 0 11 6 2 14 -20 8 -22 15 -42 14 -45z m1008 48 c-3 -7
-5 -2 -5 12 0 14 2 19 5 13 2 -7 2 -19 0 -25z m802 -13 c0 -5 -4 -3 -9 5 -5 8
-9 22 -9 30 0 16 17 -16 18 -35z m-1912 -2 c-3 -10 -5 -4 -5 12 0 17 2 24 5
18 2 -7 2 -21 0 -30z m-1240 -20 c-3 -10 -5 -2 -5 17 0 19 2 27 5 18 2 -10 2
-26 0 -35z m127 31 c9 -23 8 -24 -14 -24 -11 0 -20 2 -20 4 0 12 13 36 20 36
4 0 11 -7 14 -16z m974 -40 c-3 -14 -5 -12 -10 9 -3 19 -2 25 4 19 6 -6 8 -18
6 -28z m280 -5 c-3 -8 -7 -3 -11 10 -4 17 -3 21 5 13 5 -5 8 -16 6 -23z
m-1339 -117 c-1 -70 -3 -120 -5 -112 -7 32 -9 248 -2 243 5 -2 7 -61 7 -131z
m38 -14 c-2 -29 -3 -6 -3 52 0 58 1 81 3 53 2 -29 2 -77 0 -105z m734 105
c-11 -21 -20 -34 -21 -30 0 14 32 78 37 73 2 -2 -5 -21 -16 -43z m396 15 c-3
-7 -5 -2 -5 12 0 14 2 19 5 13 2 -7 2 -19 0 -25z m720 10 c-3 -8 -6 -5 -6 6
-1 11 2 17 5 13 3 -3 4 -12 1 -19z m-1936 -75 c2 -29 0 -56 -4 -59 -4 -4 -7
21 -7 56 0 75 7 77 11 3z m1127 21 c-3 -14 -5 -12 -10 9 -3 19 -2 25 4 19 6
-6 8 -18 6 -28z m-1288 6 c0 -5 -2 -10 -4 -10 -3 0 -8 5 -11 10 -3 6 -1 10 4
10 6 0 11 -4 11 -10z m-90 -12 c-6 -7 -17 -22 -26 -33 -13 -17 -12 -15 1 13 8
17 20 32 26 32 6 0 6 -4 -1 -12z m1627 -20 c-3 -8 -6 -5 -6 6 -1 11 2 17 5 13
3 -3 4 -12 1 -19z m-1780 -25 c-3 -10 -5 -4 -5 12 0 17 2 24 5 18 2 -7 2 -21
0 -30z m850 -65 c-2 -18 -4 -6 -4 27 0 33 2 48 4 33 2 -15 2 -42 0 -60z m343
74 c0 -5 -7 -17 -15 -28 -14 -18 -14 -17 -4 9 12 27 19 34 19 19z m437 -49
c-3 -10 -5 -2 -5 17 0 19 2 27 5 18 2 -10 2 -26 0 -35z m-740 -15 c-2 -13 -4
-5 -4 17 -1 22 1 32 4 23 2 -10 2 -28 0 -40z m-774 27 c-3 -9 -8 -14 -10 -11
-3 3 -2 9 2 15 9 16 15 13 8 -4z m1038 -38 c-10 -9 -11 -8 -5 6 3 10 9 15 12
12 3 -3 0 -11 -7 -18z m-1054 -24 c-3 -10 -5 -4 -5 12 0 17 2 24 5 18 2 -7 2
-21 0 -30z m240 5 c-3 -7 -5 -2 -5 12 0 14 2 19 5 13 2 -7 2 -19 0 -25z m50
-35 c-2 -16 -4 -5 -4 22 0 28 2 40 4 28 2 -13 2 -35 0 -50z m1402 -77 c-3 -3
-11 5 -18 17 -13 21 -12 21 5 5 10 -10 16 -20 13 -22z m-1402 -23 c-3 -10 -5
-2 -5 17 0 19 2 27 5 18 2 -10 2 -26 0 -35z m1270 -45 c-3 -8 -6 -5 -6 6 -1
11 2 17 5 13 3 -3 4 -12 1 -19z m-1530 -95 c-3 -10 -5 -2 -5 17 0 19 2 27 5
18 2 -10 2 -26 0 -35z m1883 -983 c54 -27 90 -64 76 -77 -3 -3 -8 2 -12 11 -3
9 -10 16 -16 16 -5 0 0 -13 11 -29 26 -36 26 -48 1 -63 -11 -7 -20 -19 -20
-26 0 -7 -5 -10 -12 -6 -7 5 -2 15 18 31 16 12 24 23 18 23 -6 0 -22 -8 -35
-19 -13 -10 -33 -21 -45 -25 -11 -3 -32 -18 -45 -33 l-24 -27 33 27 c19 15 37
27 42 27 4 0 31 -21 59 -46 l51 -46 0 -83 c0 -92 1 -91 -77 -123 -50 -20 -53
-20 -53 -3 0 39 -22 79 -50 91 -16 7 -34 9 -39 5 -15 -9 -14 10 2 23 7 6 25
13 41 16 15 3 34 10 41 16 9 8 20 2 44 -26 18 -20 34 -34 37 -32 6 7 -132 138
-146 138 -9 0 -9 -4 -2 -12 16 -21 20 -78 6 -78 -10 0 -12 9 -8 29 5 24 2 30
-16 36 -39 12 -114 -9 -188 -56 -22 -13 -26 -12 -68 34 -24 27 -44 54 -43 60
0 7 28 35 62 63 67 55 273 194 288 194 5 0 36 -13 69 -30z m-936 -186 c21 -8
20 -20 -1 -27 -10 -2 -27 -8 -37 -13 -19 -7 -19 -7 0 19 22 31 18 29 38 21z
m1017 -25 c11 -11 19 -25 17 -30 -2 -6 -14 4 -26 20 -26 36 -22 41 9 10z
m-211 -91 c0 -40 -18 -71 -27 -49 -3 8 -16 25 -29 38 -16 16 -20 25 -11 28 6
2 19 6 27 8 33 11 40 7 40 -25z m-245 -20 l25 -22 -47 -48 c-26 -26 -51 -48
-55 -48 -4 0 -1 19 6 43 14 44 37 97 43 97 1 0 14 -10 28 -22z m335 18 c0 -2
-7 -6 -15 -10 -8 -3 -15 -1 -15 4 0 6 7 10 15 10 8 0 15 -2 15 -4z m150 -171
c0 -9 -7 -18 -15 -21 -22 -9 -20 -111 4 -167 11 -24 21 -66 23 -93 3 -43 1
-49 -16 -49 -15 0 -22 11 -31 55 -6 30 -19 72 -28 94 -10 22 -17 64 -17 100 0
60 1 63 33 79 41 20 47 20 47 2z m270 -63 c21 -26 27 -82 10 -82 -5 0 -10 10
-10 23 0 31 -27 67 -50 67 -10 0 -31 -10 -45 -23 -32 -27 -39 -92 -13 -111 26
-19 7 -39 -20 -20 -46 32 -20 138 41 168 36 17 62 11 87 -22z m-982 -25 c46
-24 84 -47 85 -51 0 -4 -23 -50 -52 -101 l-53 -93 -64 63 c-35 35 -79 74 -96
86 -18 12 11 -19 64 -70 53 -50 100 -101 103 -112 7 -22 -21 -99 -37 -99 -4 0
-8 4 -8 9 0 16 -177 197 -237 241 -32 24 -62 47 -66 51 -5 3 34 34 85 68 90
61 95 63 143 57 31 -3 81 -22 133 -49z m1128 -68 c38 -18 43 -24 39 -47 -2
-15 -7 -71 -11 -124 l-6 -97 -25 29 c-14 17 -31 30 -39 30 -8 0 -14 6 -14 14
0 8 -13 49 -29 90 l-29 75 32 25 c17 14 33 25 35 26 3 0 24 -9 47 -21z m-961
-233 c66 -31 135 -85 135 -107 0 -5 -16 -48 -35 -96 -29 -73 -33 -88 -21 -95
42 -23 76 -62 76 -85 0 -36 -49 -195 -66 -212 -11 -12 -26 -8 -106 32 -96 47
-320 127 -357 127 -13 0 -26 10 -33 24 -9 21 -5 40 27 118 20 51 43 100 51
109 28 31 70 31 155 -2 44 -17 84 -29 91 -27 6 2 -18 14 -53 27 -35 13 -68 27
-72 31 -5 4 12 51 37 104 52 112 46 110 171 52z m954 -22 c14 -17 21 -41 21
-69 0 -54 -29 -83 -93 -91 -42 -6 -49 -4 -77 25 -26 26 -31 37 -28 71 2 22 7
40 13 40 5 0 8 -14 7 -30 -4 -38 35 -80 74 -80 60 0 95 76 59 124 -32 42 -8
51 24 10z m-31 -26 c14 -14 15 -47 3 -66 -12 -20 -84 -27 -98 -11 -25 30 -19
53 17 71 41 21 62 22 78 6z"/>
<path d="M1191 3344 c0 -11 3 -14 6 -6 3 7 2 16 -1 19 -3 4 -6 -2 -5 -13z"/>
<path d="M1160 3230 c0 -5 5 -10 10 -10 6 0 10 5 10 10 0 6 -4 10 -10 10 -5 0
-10 -4 -10 -10z"/>
<path d="M1147 3183 c-12 -11 -8 -30 7 -30 8 0 11 8 8 19 -5 20 -6 21 -15 11z"/>
<path d="M3942 3310 c0 -14 2 -19 5 -12 2 6 2 18 0 25 -3 6 -5 1 -5 -13z"/>
<path d="M3950 3249 c0 -11 5 -17 10 -14 6 3 10 13 10 21 0 8 -4 14 -10 14 -5
0 -10 -9 -10 -21z"/>
<path d="M2118 3103 c7 -3 16 -2 19 1 4 3 -2 6 -13 5 -11 0 -14 -3 -6 -6z"/>
<path d="M1961 2603 c-135 -67 -147 -328 -18 -423 51 -37 90 -45 158 -31 l54
10 -58 -4 c-39 -4 -69 0 -95 10 -39 17 -112 81 -112 100 0 22 62 84 95 95 27
9 35 17 35 36 0 27 40 74 63 74 19 0 57 -42 57 -63 0 -12 9 -17 30 -17 17 0
49 -9 71 -21 39 -20 41 -22 34 -57 -4 -19 -20 -55 -36 -79 -19 -27 -24 -41
-14 -37 8 4 27 26 42 51 23 40 25 52 21 121 -6 92 -30 146 -87 191 -77 62
-170 78 -240 44z"/>
<path d="M2687 1900 c6 -49 13 -65 13 -32 0 16 9 23 43 31 l42 11 -41 -4 c-35
-3 -44 0 -53 18 -8 17 -9 12 -4 -24z"/>
<path d="M2310 1501 c8 -6 28 -11 44 -11 39 0 31 6 -19 14 -29 5 -36 4 -25 -3z"/>
<path d="M2638 1551 c-2 -5 -20 -18 -41 -29 l-38 -20 27 -21 c34 -27 41 -26
87 8 39 30 38 35 -10 60 -12 6 -23 7 -25 2z m33 -24 c15 -11 13 -15 -17 -35
-19 -12 -34 -18 -34 -12 0 5 -7 10 -15 10 -8 0 -15 5 -15 10 0 13 13 13 27 -1
6 -6 17 -8 23 -4 9 6 9 9 0 15 -7 4 -9 13 -6 19 9 14 17 14 37 -2z"/>
<path d="M2460 1432 c0 -5 11 -15 25 -22 24 -13 24 -15 8 -24 -10 -5 -25 -19
-35 -30 -16 -20 -18 -20 -34 -3 -18 16 -18 17 -1 17 11 0 15 -5 11 -11 -4 -7
-1 -10 7 -7 15 5 22 68 7 68 -5 0 -21 -12 -35 -26 l-25 -26 33 -34 c18 -19 38
-34 43 -34 6 0 4 5 -4 10 -12 9 -9 16 23 43 43 37 46 50 15 71 -25 18 -38 20
-38 8z m-20 -42 c0 -5 -5 -10 -11 -10 -5 0 -7 5 -4 10 3 6 8 10 11 10 2 0 4
-4 4 -10z"/>
<path d="M2703 1163 c9 -2 23 -2 30 0 6 3 -1 5 -18 5 -16 0 -22 -2 -12 -5z"/>
<path d="M3222 820 c0 -19 2 -27 5 -17 2 9 2 25 0 35 -3 9 -5 1 -5 -18z"/>
<path d="M3211 754 c0 -11 3 -14 6 -6 3 7 2 16 -1 19 -3 4 -6 -2 -5 -13z"/>
<path d="M2860 4523 c-8 -4 28 -17 80 -30 125 -31 309 -122 435 -216 56 -40
148 -124 208 -186 59 -63 107 -110 107 -107 0 28 -158 196 -265 283 -179 145
-491 286 -565 256z"/>
<path d="M1824 4324 c-39 -19 -157 -123 -219 -194 -49 -55 -165 -225 -165
-241 0 -19 11 -7 69 79 80 116 184 228 279 298 42 31 81 61 87 66 15 13 -17 9
-51 -8z"/>
<path d="M3092 3660 c0 -14 2 -19 5 -12 2 6 2 18 0 25 -3 6 -5 1 -5 -13z"/>
<path d="M3290 3639 c0 -11 4 -18 10 -14 5 3 7 12 3 20 -7 21 -13 19 -13 -6z"/>
<path d="M3090 3620 c0 -5 5 -10 11 -10 5 0 7 5 4 10 -3 6 -8 10 -11 10 -2 0
-4 -4 -4 -10z"/>
<path d="M3379 3585 c17 -33 31 -51 31 -40 0 6 -10 21 -21 35 -13 17 -17 18
-10 5z"/>
<path d="M3259 3573 c-13 -16 -12 -17 4 -4 9 7 17 15 17 17 0 8 -8 3 -21 -13z"/>
<path d="M1688 3563 c6 -2 18 -2 25 0 6 3 1 5 -13 5 -14 0 -19 -2 -12 -5z"/>
<path d="M3405 3519 c-4 -6 -4 -13 -1 -16 3 -4 6 -1 6 6 0 7 5 9 12 5 7 -4 8
-3 4 4 -9 15 -13 15 -21 1z"/>
<path d="M3430 3491 c0 -5 7 -12 16 -15 14 -5 15 -4 4 9 -14 17 -20 19 -20 6z"/>
<path d="M2153 3455 c0 -22 2 -30 4 -17 2 12 2 30 0 40 -3 9 -5 -1 -4 -23z"/>
<path d="M3660 3450 c-9 -6 -10 -10 -3 -10 6 0 15 5 18 10 8 12 4 12 -15 0z"/>
<path d="M2391 3434 c0 -11 3 -14 6 -6 3 7 2 16 -1 19 -3 4 -6 -2 -5 -13z"/>
<path d="M3506 3431 c6 -7 31 -14 55 -17 l44 -3 -43 9 c-23 5 -48 12 -55 16
-9 5 -9 4 -1 -5z"/>
<path d="M3618 3423 c7 -3 16 -2 19 1 4 3 -2 6 -13 5 -11 0 -14 -3 -6 -6z"/>
<path d="M3862 3400 c0 -14 2 -19 5 -12 2 6 2 18 0 25 -3 6 -5 1 -5 -13z"/>
<path d="M4086 3411 c-8 -12 13 -48 31 -55 17 -7 16 -2 -6 35 -11 17 -22 26
-25 20z"/>
<path d="M2332 3380 c0 -14 2 -19 5 -12 2 6 2 18 0 25 -3 6 -5 1 -5 -13z"/>
<path d="M2982 3380 c0 -14 2 -19 5 -12 2 6 2 18 0 25 -3 6 -5 1 -5 -13z"/>
<path d="M2918 3347 c-3 -15 3 -34 13 -48 l18 -24 -6 40 c-7 50 -19 64 -25 32z"/>
<path d="M2334 3337 c-2 -7 0 -24 5 -38 9 -22 10 -21 10 14 1 37 -5 48 -15 24z"/>
<path d="M2010 3295 c0 -8 5 -15 10 -15 6 0 10 7 10 15 0 8 -4 15 -10 15 -5 0
-10 -7 -10 -15z"/>
<path d="M2260 3295 c0 -8 5 -15 10 -15 6 0 10 7 10 15 0 8 -4 15 -10 15 -5 0
-10 -7 -10 -15z"/>
<path d="M4080 3295 c0 -8 5 -15 10 -15 6 0 10 7 10 15 0 8 -4 15 -10 15 -5 0
-10 -7 -10 -15z"/>
<path d="M785 3250 c-3 -5 -1 -10 4 -10 6 0 11 5 11 10 0 6 -2 10 -4 10 -3 0
-8 -4 -11 -10z"/>
<path d="M2000 3234 c0 -23 2 -24 15 -10 8 8 15 17 15 19 0 3 -7 7 -15 11 -11
4 -15 -2 -15 -20z"/>
<path d="M1232 3220 c0 -19 2 -27 5 -17 2 9 2 25 0 35 -3 9 -5 1 -5 -18z"/>
<path d="M1810 3160 c0 -5 5 -10 10 -10 6 0 10 5 10 10 0 6 -4 10 -10 10 -5 0
-10 -4 -10 -10z"/>
<path d="M1938 3153 c12 -2 32 -2 45 0 12 2 2 4 -23 4 -25 0 -35 -2 -22 -4z"/>
<path d="M1878 3143 c6 -2 18 -2 25 0 6 3 1 5 -13 5 -14 0 -19 -2 -12 -5z"/>
</g>
</svg>
