<?xml version="1.0" standalone="no"?>
<!DOCTYPE svg PUBLIC "-//W3C//DTD SVG 20010904//EN"
 "http://www.w3.org/TR/2001/REC-SVG-20010904/DTD/svg10.dtd">
<svg version="1.0" xmlns="http://www.w3.org/2000/svg"
 width="512.000000pt" height="512.000000pt" viewBox="0 0 512.000000 512.000000"
 preserveAspectRatio="xMidYMid meet">
<metadata>
Created by potrace 1.14, written by Peter Selinger 2001-2017
</metadata>
<g transform="translate(0.000000,512.000000) scale(0.100000,-0.100000)"
fill="#000000" stroke="none">
<path d="M0 2560 l0 -2560 2560 0 2560 0 0 2560 0 2560 -2560 0 -2560 0 0
-2560z m1280 2080 l0 -160 160 0 160 0 0 -160 0 -160 -160 0 -160 0 0 -160 0
-160 160 0 160 0 0 -160 0 -160 -160 0 -160 0 0 -160 0 -160 -480 0 -480 0 0
800 0 800 480 0 480 0 0 -160z m3200 0 l0 -160 160 0 160 0 0 -160 0 -160
-160 0 -160 0 0 -160 0 -160 160 0 160 0 0 -320 0 -320 -160 0 -160 0 0 320 0
320 -320 0 -320 0 0 -320 0 -320 -160 0 -160 0 0 800 0 800 480 0 480 0 0
-160z m-1280 -1120 l0 -320 -160 0 -160 0 0 -160 0 -160 -160 0 -160 0 0 -320
0 -320 -160 0 -160 0 0 320 0 320 160 0 160 0 0 160 0 160 160 0 160 0 0 160
0 160 -480 0 -480 0 0 160 0 160 640 0 640 0 0 -320z m-1600 -800 l0 -160
-320 0 -320 0 0 -320 0 -320 160 0 160 0 0 -160 0 -160 160 0 160 0 0 -160 0
-160 -160 0 -160 0 0 160 0 160 -160 0 -160 0 0 160 0 160 -160 0 -160 0 0
320 0 320 -160 0 -160 0 0 160 0 160 640 0 640 0 0 -160z m3200 0 l0 -160
-160 0 -160 0 0 -320 0 -320 -160 0 -160 0 0 -160 0 -160 -160 0 -160 0 0
-160 0 -160 -160 0 -160 0 0 160 0 160 160 0 160 0 0 160 0 160 160 0 160 0 0
320 0 320 -320 0 -320 0 0 160 0 160 640 0 640 0 0 -160z m-1600 -960 l0 -160
-480 0 -480 0 0 -160 0 -160 320 0 320 0 0 -160 0 -160 -320 0 -320 0 0 -160
0 -160 480 0 480 0 0 -160 0 -160 -640 0 -640 0 0 800 0 800 640 0 640 0 0
-160z"/>
<path d="M640 4320 l0 -160 320 0 320 0 0 160 0 160 -320 0 -320 0 0 -160z"/>
<path d="M640 3680 l0 -160 320 0 320 0 0 160 0 160 -320 0 -320 0 0 -160z"/>
<path d="M3840 4320 l0 -160 320 0 320 0 0 160 0 160 -320 0 -320 0 0 -160z"/>
</g>
</svg>
